<svg xmlns="http://www.w3.org/2000/svg" xmlns:xlink="http://www.w3.org/1999/xlink" id="Ebene_1" width="205" height="205" x="0" y="0" enable-background="new 0 0 350.024 350.024" version="1.1" viewBox="0 0 205 205" xml:space="preserve"><metadata id="metadata3041"/><defs id="defs3039"><defs id="defs3017"><rect id="SVGID_1_" width="350.024" height="350.024" x="0" y="0"/></defs><clipPath id="SVGID_2_"><use id="use3021" overflow="visible" xlink:href="#SVGID_1_" style="overflow:visible" width="350.024" height="350.024" x="0" y="0"/></clipPath></defs><g id="g4308" transform="translate(4.464505,-1.0189586)"><path id="path3025" d="M 169.701,159.59 C 165.76,106.354 90.925,87.102 90.754,88.131 c -0.138,6.655 -0.277,13.309 -0.415,19.964 17.786,3.616 61.666,20.094 79.362,51.495" clip-path="url(#SVGID_2_)" transform="translate(-76.976,-71.492991)" style="fill:#4f5f8f;fill-opacity:1"/><path id="path3027" d="M 168.724,133.743 C 165.32,91.685 107.608,72.901 107.501,73.547 c -0.041,3.517 -0.081,7.035 -0.121,10.553 18.138,7.541 47.675,24.698 61.344,49.643" clip-path="url(#SVGID_2_)" transform="translate(-76.976,-71.492991)" style="fill:#4f5f8f;fill-opacity:1"/><path id="path3029" d="m 139.626,137.75 c -25.869,-17.587 -58.458,-22.145 -58.582,-21.399 -0.316,12.413 -0.631,24.826 -0.946,37.239 37.889,2.181 40.156,25.749 37.868,40.824 l -39.112,12.556 -1.878,69.523 68.665,-26.614 c 8.02,-3.279 16.04,-6.436 24.061,-9.326 v -47.922 c 0,-21.406 -10.904,-41.845 -30.076,-54.881" clip-path="url(#SVGID_2_)" transform="translate(-76.976,-71.492991)" style="fill:#4f5f8f;fill-opacity:1"/><path id="path3031" d="m 180.322,159.59 c 3.941,-53.236 78.776,-72.488 78.947,-71.459 0.138,6.655 0.277,13.309 0.415,19.964 -17.786,3.616 -61.665,20.094 -79.362,51.495" clip-path="url(#SVGID_2_)" transform="translate(-76.976,-71.492991)" style="fill:#4f5f8f;fill-opacity:1"/><path id="path3033" d="m 181.3,133.743 c 3.404,-42.058 61.116,-60.842 61.223,-60.196 0.041,3.517 0.081,7.035 0.121,10.553 -18.138,7.541 -47.675,24.698 -61.344,49.643" clip-path="url(#SVGID_2_)" transform="translate(-76.976,-71.492991)" style="fill:#4f5f8f;fill-opacity:1"/><path id="path3035" d="m 210.397,137.75 c 25.869,-17.587 58.458,-22.145 58.582,-21.399 0.316,12.413 0.632,24.826 0.946,37.239 -37.889,2.181 -40.156,25.749 -37.868,40.824 l 39.112,12.556 1.878,69.523 -68.665,-26.614 c -8.02,-3.279 -16.04,-6.436 -24.061,-9.326 v -47.922 c 0.001,-21.406 10.905,-41.845 30.076,-54.881" clip-path="url(#SVGID_2_)" transform="translate(-76.976,-71.492991)" style="fill:#4f5f8f;fill-opacity:1"/></g></svg>